<mxfile host="app.diagrams.net" modified="2024-02-02T10:37:39.304Z" agent="Mozilla/5.0 (X11; Linux x86_64; rv:122.0) Gecko/20100101 Firefox/122.0" etag="B2P2E62zpqcfiW-QAeC6" version="23.1.0" type="device">
  <diagram id="C5RBs43oDa-KdzZeNtuy" name="Page-1">
    <mxGraphModel dx="1914" dy="1192" grid="1" gridSize="10" guides="1" tooltips="1" connect="1" arrows="1" fold="1" page="1" pageScale="1" pageWidth="827" pageHeight="1169" math="0" shadow="0">
      <root>
        <mxCell id="WIyWlLk6GJQsqaUBKTNV-0" />
        <mxCell id="WIyWlLk6GJQsqaUBKTNV-1" parent="WIyWlLk6GJQsqaUBKTNV-0" />
        <mxCell id="1KCT2nZTQpKCan8YGp3O-2" value="&lt;div&gt;«interface»&lt;/div&gt;&lt;b&gt;Movable&lt;/b&gt;" style="html=1;whiteSpace=wrap;" parent="WIyWlLk6GJQsqaUBKTNV-1" vertex="1">
          <mxGeometry x="50" y="70" width="110" height="50" as="geometry" />
        </mxCell>
        <mxCell id="1KCT2nZTQpKCan8YGp3O-15" value="&lt;div&gt;GroundVehicle&lt;/div&gt;" style="swimlane;fontStyle=0;childLayout=stackLayout;horizontal=1;startSize=26;fillColor=none;horizontalStack=0;resizeParent=1;resizeParentMax=0;resizeLast=0;collapsible=1;marginBottom=0;whiteSpace=wrap;html=1;" parent="WIyWlLk6GJQsqaUBKTNV-1" vertex="1">
          <mxGeometry x="250" y="171" width="155" height="68" as="geometry" />
        </mxCell>
        <mxCell id="1KCT2nZTQpKCan8YGp3O-103" value="+ setSpeedFactor(double) : void" style="text;strokeColor=none;fillColor=none;align=left;verticalAlign=top;spacingLeft=4;spacingRight=4;overflow=hidden;rotatable=0;points=[[0,0.5],[1,0.5]];portConstraint=eastwest;whiteSpace=wrap;html=1;" parent="1KCT2nZTQpKCan8YGp3O-15" vertex="1">
          <mxGeometry y="26" width="155" height="42" as="geometry" />
        </mxCell>
        <mxCell id="1KCT2nZTQpKCan8YGp3O-21" value="Extends" style="endArrow=block;endSize=16;endFill=0;html=1;rounded=0;" parent="WIyWlLk6GJQsqaUBKTNV-1" source="_7U5zjCwsV4HifF4RqIY-29" target="1KCT2nZTQpKCan8YGp3O-73" edge="1">
          <mxGeometry width="160" relative="1" as="geometry">
            <mxPoint x="675.0000000000002" y="108.375" as="sourcePoint" />
            <mxPoint x="554" y="102.00000000000011" as="targetPoint" />
          </mxGeometry>
        </mxCell>
        <mxCell id="1KCT2nZTQpKCan8YGp3O-22" value="Extends" style="endArrow=block;endSize=16;endFill=0;html=1;rounded=0;" parent="WIyWlLk6GJQsqaUBKTNV-1" source="1KCT2nZTQpKCan8YGp3O-97" target="1KCT2nZTQpKCan8YGp3O-2" edge="1">
          <mxGeometry width="160" relative="1" as="geometry">
            <mxPoint x="279" y="101.99999999999989" as="sourcePoint" />
            <mxPoint x="461" y="437" as="targetPoint" />
          </mxGeometry>
        </mxCell>
        <mxCell id="1KCT2nZTQpKCan8YGp3O-28" value="" style="endArrow=block;dashed=1;endFill=0;endSize=12;html=1;rounded=0;" parent="WIyWlLk6GJQsqaUBKTNV-1" source="1KCT2nZTQpKCan8YGp3O-15" target="1KCT2nZTQpKCan8YGp3O-97" edge="1">
          <mxGeometry width="160" relative="1" as="geometry">
            <mxPoint x="320" y="437" as="sourcePoint" />
            <mxPoint x="332.52941176470586" y="126.99999999999989" as="targetPoint" />
            <Array as="points" />
          </mxGeometry>
        </mxCell>
        <mxCell id="jXeaGVmI7CSgdZlr9k7w-2" style="edgeStyle=orthogonalEdgeStyle;rounded=0;orthogonalLoop=1;jettySize=auto;html=1;" edge="1" parent="WIyWlLk6GJQsqaUBKTNV-1" source="1KCT2nZTQpKCan8YGp3O-30" target="1KCT2nZTQpKCan8YGp3O-62">
          <mxGeometry relative="1" as="geometry" />
        </mxCell>
        <mxCell id="1KCT2nZTQpKCan8YGp3O-30" value="Volvo240" style="swimlane;fontStyle=0;childLayout=stackLayout;horizontal=1;startSize=26;fillColor=none;horizontalStack=0;resizeParent=1;resizeParentMax=0;resizeLast=0;collapsible=1;marginBottom=0;whiteSpace=wrap;html=1;" parent="WIyWlLk6GJQsqaUBKTNV-1" vertex="1">
          <mxGeometry x="160" y="612" width="140" height="52" as="geometry" />
        </mxCell>
        <mxCell id="jXeaGVmI7CSgdZlr9k7w-1" style="edgeStyle=orthogonalEdgeStyle;rounded=0;orthogonalLoop=1;jettySize=auto;html=1;" edge="1" parent="WIyWlLk6GJQsqaUBKTNV-1" source="1KCT2nZTQpKCan8YGp3O-42" target="1KCT2nZTQpKCan8YGp3O-62">
          <mxGeometry relative="1" as="geometry" />
        </mxCell>
        <mxCell id="1KCT2nZTQpKCan8YGp3O-42" value="&lt;div&gt;Saab95&lt;/div&gt;" style="swimlane;fontStyle=0;childLayout=stackLayout;horizontal=1;startSize=26;fillColor=none;horizontalStack=0;resizeParent=1;resizeParentMax=0;resizeLast=0;collapsible=1;marginBottom=0;whiteSpace=wrap;html=1;" parent="WIyWlLk6GJQsqaUBKTNV-1" vertex="1">
          <mxGeometry x="11" y="612" width="140" height="52" as="geometry" />
        </mxCell>
        <mxCell id="jXeaGVmI7CSgdZlr9k7w-9" style="edgeStyle=orthogonalEdgeStyle;rounded=0;orthogonalLoop=1;jettySize=auto;html=1;" edge="1" parent="WIyWlLk6GJQsqaUBKTNV-1" source="1KCT2nZTQpKCan8YGp3O-46" target="_7U5zjCwsV4HifF4RqIY-6">
          <mxGeometry relative="1" as="geometry">
            <Array as="points">
              <mxPoint x="580" y="510" />
              <mxPoint x="414" y="510" />
            </Array>
          </mxGeometry>
        </mxCell>
        <mxCell id="1KCT2nZTQpKCan8YGp3O-46" value="ScaniaV8" style="swimlane;fontStyle=0;childLayout=stackLayout;horizontal=1;startSize=26;fillColor=none;horizontalStack=0;resizeParent=1;resizeParentMax=0;resizeLast=0;collapsible=1;marginBottom=0;whiteSpace=wrap;html=1;" parent="WIyWlLk6GJQsqaUBKTNV-1" vertex="1">
          <mxGeometry x="506" y="610" width="146" height="67" as="geometry">
            <mxRectangle x="554" y="353" width="90" height="30" as="alternateBounds" />
          </mxGeometry>
        </mxCell>
        <mxCell id="1KCT2nZTQpKCan8YGp3O-106" value="+ &lt;u&gt;TORQUE_FACTOR&lt;/u&gt; : int" style="text;strokeColor=none;fillColor=none;align=left;verticalAlign=top;spacingLeft=4;spacingRight=4;overflow=hidden;rotatable=0;points=[[0,0.5],[1,0.5]];portConstraint=eastwest;whiteSpace=wrap;html=1;" parent="1KCT2nZTQpKCan8YGp3O-46" vertex="1">
          <mxGeometry y="26" width="146" height="41" as="geometry" />
        </mxCell>
        <mxCell id="jXeaGVmI7CSgdZlr9k7w-8" style="edgeStyle=orthogonalEdgeStyle;rounded=0;orthogonalLoop=1;jettySize=auto;html=1;" edge="1" parent="WIyWlLk6GJQsqaUBKTNV-1" source="1KCT2nZTQpKCan8YGp3O-55" target="_7U5zjCwsV4HifF4RqIY-6">
          <mxGeometry relative="1" as="geometry">
            <Array as="points">
              <mxPoint x="397" y="510" />
              <mxPoint x="414" y="510" />
            </Array>
          </mxGeometry>
        </mxCell>
        <mxCell id="1KCT2nZTQpKCan8YGp3O-55" value="VolvoFL" style="swimlane;fontStyle=0;childLayout=stackLayout;horizontal=1;startSize=26;fillColor=none;horizontalStack=0;resizeParent=1;resizeParentMax=0;resizeLast=0;collapsible=1;marginBottom=0;whiteSpace=wrap;html=1;" parent="WIyWlLk6GJQsqaUBKTNV-1" vertex="1">
          <mxGeometry x="327" y="612" width="139" height="109" as="geometry">
            <mxRectangle x="320" y="353" width="90" height="30" as="alternateBounds" />
          </mxGeometry>
        </mxCell>
        <mxCell id="1KCT2nZTQpKCan8YGp3O-70" value="Truck that carries cars, cant tip its trailer" style="text;strokeColor=none;fillColor=none;align=left;verticalAlign=top;spacingLeft=4;spacingRight=4;overflow=hidden;rotatable=0;points=[[0,0.5],[1,0.5]];portConstraint=eastwest;whiteSpace=wrap;html=1;" parent="1KCT2nZTQpKCan8YGp3O-55" vertex="1">
          <mxGeometry y="26" width="139" height="42" as="geometry" />
        </mxCell>
        <mxCell id="jXeaGVmI7CSgdZlr9k7w-53" value="+ &lt;u&gt;TORQUE_FACTOR&lt;/u&gt; : int" style="text;strokeColor=none;fillColor=none;align=left;verticalAlign=top;spacingLeft=4;spacingRight=4;overflow=hidden;rotatable=0;points=[[0,0.5],[1,0.5]];portConstraint=eastwest;whiteSpace=wrap;html=1;" vertex="1" parent="1KCT2nZTQpKCan8YGp3O-55">
          <mxGeometry y="68" width="139" height="41" as="geometry" />
        </mxCell>
        <mxCell id="jXeaGVmI7CSgdZlr9k7w-13" style="edgeStyle=orthogonalEdgeStyle;rounded=0;orthogonalLoop=1;jettySize=auto;html=1;" edge="1" parent="WIyWlLk6GJQsqaUBKTNV-1" source="1KCT2nZTQpKCan8YGp3O-62" target="1KCT2nZTQpKCan8YGp3O-15">
          <mxGeometry relative="1" as="geometry">
            <Array as="points">
              <mxPoint x="157" y="290" />
              <mxPoint x="328" y="290" />
            </Array>
          </mxGeometry>
        </mxCell>
        <mxCell id="1KCT2nZTQpKCan8YGp3O-62" value="NormalCar" style="swimlane;fontStyle=0;childLayout=stackLayout;horizontal=1;startSize=26;fillColor=none;horizontalStack=0;resizeParent=1;resizeParentMax=0;resizeLast=0;collapsible=1;marginBottom=0;whiteSpace=wrap;html=1;" parent="WIyWlLk6GJQsqaUBKTNV-1" vertex="1">
          <mxGeometry x="80" y="330" width="154" height="106" as="geometry" />
        </mxCell>
        <mxCell id="1KCT2nZTQpKCan8YGp3O-101" value="+ setSpeedFactor(double) : void" style="text;strokeColor=none;fillColor=none;align=left;verticalAlign=top;spacingLeft=4;spacingRight=4;overflow=hidden;rotatable=0;points=[[0,0.5],[1,0.5]];portConstraint=eastwest;whiteSpace=wrap;html=1;" parent="1KCT2nZTQpKCan8YGp3O-62" vertex="1">
          <mxGeometry y="26" width="154" height="40" as="geometry" />
        </mxCell>
        <mxCell id="1KCT2nZTQpKCan8YGp3O-102" value="&lt;div&gt;Partially apply constructor here&lt;/div&gt;" style="text;strokeColor=none;fillColor=none;align=left;verticalAlign=top;spacingLeft=4;spacingRight=4;overflow=hidden;rotatable=0;points=[[0,0.5],[1,0.5]];portConstraint=eastwest;whiteSpace=wrap;html=1;" parent="1KCT2nZTQpKCan8YGp3O-62" vertex="1">
          <mxGeometry y="66" width="154" height="40" as="geometry" />
        </mxCell>
        <mxCell id="1KCT2nZTQpKCan8YGp3O-73" value="«interface»&lt;br&gt;&lt;div&gt;&lt;b&gt;HasStorage&amp;lt;T&amp;gt;&lt;/b&gt;&lt;/div&gt;" style="swimlane;fontStyle=0;childLayout=stackLayout;horizontal=1;startSize=39;fillColor=none;horizontalStack=0;resizeParent=1;resizeParentMax=0;resizeLast=0;collapsible=1;marginBottom=0;whiteSpace=wrap;html=1;" parent="WIyWlLk6GJQsqaUBKTNV-1" vertex="1">
          <mxGeometry x="440" y="54" width="140" height="117" as="geometry" />
        </mxCell>
        <mxCell id="1KCT2nZTQpKCan8YGp3O-74" value="+ storeThing(T) : void" style="text;strokeColor=none;fillColor=none;align=left;verticalAlign=top;spacingLeft=4;spacingRight=4;overflow=hidden;rotatable=0;points=[[0,0.5],[1,0.5]];portConstraint=eastwest;whiteSpace=wrap;html=1;" parent="1KCT2nZTQpKCan8YGp3O-73" vertex="1">
          <mxGeometry y="39" width="140" height="26" as="geometry" />
        </mxCell>
        <mxCell id="1KCT2nZTQpKCan8YGp3O-75" value="+ removeThing(): T" style="text;strokeColor=none;fillColor=none;align=left;verticalAlign=top;spacingLeft=4;spacingRight=4;overflow=hidden;rotatable=0;points=[[0,0.5],[1,0.5]];portConstraint=eastwest;whiteSpace=wrap;html=1;" parent="1KCT2nZTQpKCan8YGp3O-73" vertex="1">
          <mxGeometry y="65" width="140" height="26" as="geometry" />
        </mxCell>
        <mxCell id="1KCT2nZTQpKCan8YGp3O-76" value="+ countThings() : int" style="text;strokeColor=none;fillColor=none;align=left;verticalAlign=top;spacingLeft=4;spacingRight=4;overflow=hidden;rotatable=0;points=[[0,0.5],[1,0.5]];portConstraint=eastwest;whiteSpace=wrap;html=1;" parent="1KCT2nZTQpKCan8YGp3O-73" vertex="1">
          <mxGeometry y="91" width="140" height="26" as="geometry" />
        </mxCell>
        <mxCell id="1KCT2nZTQpKCan8YGp3O-80" value="UML PLAN, THIS ONLY CONTAINS CHANGES. SEE PREVIOUS UML FOR MISSING INFORMATION" style="text;html=1;strokeColor=none;fillColor=none;align=center;verticalAlign=middle;whiteSpace=wrap;rounded=0;" parent="WIyWlLk6GJQsqaUBKTNV-1" vertex="1">
          <mxGeometry y="10" width="827" height="30" as="geometry" />
        </mxCell>
        <mxCell id="1KCT2nZTQpKCan8YGp3O-97" value="«interface»&lt;br&gt;&lt;div&gt;&lt;b&gt;IsVehicle&lt;/b&gt;&lt;/div&gt;" style="swimlane;fontStyle=0;childLayout=stackLayout;horizontal=1;startSize=39;fillColor=none;horizontalStack=0;resizeParent=1;resizeParentMax=0;resizeLast=0;collapsible=1;marginBottom=0;whiteSpace=wrap;html=1;" parent="WIyWlLk6GJQsqaUBKTNV-1" vertex="1" collapsed="1">
          <mxGeometry x="280" y="75" width="100" height="40" as="geometry">
            <mxRectangle x="252" y="54" width="156" height="81" as="alternateBounds" />
          </mxGeometry>
        </mxCell>
        <mxCell id="jXeaGVmI7CSgdZlr9k7w-12" style="edgeStyle=orthogonalEdgeStyle;rounded=0;orthogonalLoop=1;jettySize=auto;html=1;" edge="1" parent="WIyWlLk6GJQsqaUBKTNV-1" source="_7U5zjCwsV4HifF4RqIY-6" target="1KCT2nZTQpKCan8YGp3O-15">
          <mxGeometry relative="1" as="geometry">
            <Array as="points">
              <mxPoint x="414" y="290" />
              <mxPoint x="328" y="290" />
            </Array>
          </mxGeometry>
        </mxCell>
        <mxCell id="_7U5zjCwsV4HifF4RqIY-6" value="&lt;div&gt;Truck&lt;/div&gt;" style="swimlane;fontStyle=0;childLayout=stackLayout;horizontal=1;startSize=26;fillColor=none;horizontalStack=0;resizeParent=1;resizeParentMax=0;resizeLast=0;collapsible=1;marginBottom=0;whiteSpace=wrap;html=1;" parent="WIyWlLk6GJQsqaUBKTNV-1" vertex="1">
          <mxGeometry x="344" y="349" width="140" height="67" as="geometry" />
        </mxCell>
        <mxCell id="_7U5zjCwsV4HifF4RqIY-9" value="&lt;div&gt;+ storeThings(T) : void (and so on)&lt;/div&gt;&lt;div&gt;&lt;br&gt;&lt;/div&gt;" style="text;strokeColor=none;fillColor=none;align=left;verticalAlign=top;spacingLeft=4;spacingRight=4;overflow=hidden;rotatable=0;points=[[0,0.5],[1,0.5]];portConstraint=eastwest;whiteSpace=wrap;html=1;" parent="_7U5zjCwsV4HifF4RqIY-6" vertex="1">
          <mxGeometry y="26" width="140" height="41" as="geometry" />
        </mxCell>
        <mxCell id="_7U5zjCwsV4HifF4RqIY-29" value="«interface»&lt;br&gt;&lt;div&gt;&lt;b&gt;Tippable&amp;lt;T&amp;gt;&lt;/b&gt;&lt;/div&gt;" style="swimlane;fontStyle=0;childLayout=stackLayout;horizontal=1;startSize=39;fillColor=none;horizontalStack=0;resizeParent=1;resizeParentMax=0;resizeLast=0;collapsible=1;marginBottom=0;whiteSpace=wrap;html=1;" parent="WIyWlLk6GJQsqaUBKTNV-1" vertex="1" collapsed="1">
          <mxGeometry x="660" y="92" width="120" height="40" as="geometry">
            <mxRectangle x="660" y="73" width="140" height="79" as="alternateBounds" />
          </mxGeometry>
        </mxCell>
        <mxCell id="_7U5zjCwsV4HifF4RqIY-39" value="Trailer" style="swimlane;fontStyle=0;childLayout=stackLayout;horizontal=1;startSize=26;fillColor=none;horizontalStack=0;resizeParent=1;resizeParentMax=0;resizeLast=0;collapsible=1;marginBottom=0;whiteSpace=wrap;html=1;" parent="WIyWlLk6GJQsqaUBKTNV-1" vertex="1">
          <mxGeometry x="560" y="220" width="140" height="133" as="geometry" />
        </mxCell>
        <mxCell id="_7U5zjCwsV4HifF4RqIY-55" value="- storage : Stack&amp;lt;T&amp;gt;" style="text;strokeColor=none;fillColor=none;align=left;verticalAlign=top;spacingLeft=4;spacingRight=4;overflow=hidden;rotatable=0;points=[[0,0.5],[1,0.5]];portConstraint=eastwest;whiteSpace=wrap;html=1;" parent="_7U5zjCwsV4HifF4RqIY-39" vertex="1">
          <mxGeometry y="26" width="140" height="26" as="geometry" />
        </mxCell>
        <mxCell id="_7U5zjCwsV4HifF4RqIY-51" value="+ GetStorage() : Deque&amp;lt;T&amp;gt;" style="text;strokeColor=none;fillColor=none;align=left;verticalAlign=top;spacingLeft=4;spacingRight=4;overflow=hidden;rotatable=0;points=[[0,0.5],[1,0.5]];portConstraint=eastwest;whiteSpace=wrap;html=1;" parent="_7U5zjCwsV4HifF4RqIY-39" vertex="1">
          <mxGeometry y="52" width="140" height="42" as="geometry" />
        </mxCell>
        <mxCell id="_7U5zjCwsV4HifF4RqIY-50" value="Implements Storage stuff" style="text;strokeColor=none;fillColor=none;align=left;verticalAlign=top;spacingLeft=4;spacingRight=4;overflow=hidden;rotatable=0;points=[[0,0.5],[1,0.5]];portConstraint=eastwest;whiteSpace=wrap;html=1;" parent="_7U5zjCwsV4HifF4RqIY-39" vertex="1">
          <mxGeometry y="94" width="140" height="39" as="geometry" />
        </mxCell>
        <mxCell id="_7U5zjCwsV4HifF4RqIY-46" value="" style="endArrow=block;dashed=1;endFill=0;endSize=12;html=1;rounded=0;entryX=1.015;entryY=0.808;entryDx=0;entryDy=0;entryPerimeter=0;" parent="WIyWlLk6GJQsqaUBKTNV-1" source="_7U5zjCwsV4HifF4RqIY-39" target="1KCT2nZTQpKCan8YGp3O-75" edge="1">
          <mxGeometry width="160" relative="1" as="geometry">
            <mxPoint x="630" y="160" as="sourcePoint" />
            <mxPoint x="600.00078125" y="130" as="targetPoint" />
            <Array as="points">
              <mxPoint x="630" y="140" />
            </Array>
          </mxGeometry>
        </mxCell>
        <mxCell id="jXeaGVmI7CSgdZlr9k7w-14" value="" style="endArrow=block;dashed=1;endFill=0;endSize=12;html=1;rounded=0;" edge="1" parent="WIyWlLk6GJQsqaUBKTNV-1" source="1KCT2nZTQpKCan8YGp3O-46" target="_7U5zjCwsV4HifF4RqIY-29">
          <mxGeometry width="160" relative="1" as="geometry">
            <mxPoint x="320" y="610" as="sourcePoint" />
            <mxPoint x="480" y="610" as="targetPoint" />
            <Array as="points">
              <mxPoint x="730" y="640" />
            </Array>
          </mxGeometry>
        </mxCell>
        <mxCell id="jXeaGVmI7CSgdZlr9k7w-56" value="" style="endArrow=block;dashed=1;endFill=0;endSize=12;html=1;rounded=0;exitX=1;exitY=0;exitDx=0;exitDy=0;" edge="1" parent="WIyWlLk6GJQsqaUBKTNV-1" source="_7U5zjCwsV4HifF4RqIY-6" target="1KCT2nZTQpKCan8YGp3O-73">
          <mxGeometry width="160" relative="1" as="geometry">
            <mxPoint x="338" y="181" as="sourcePoint" />
            <mxPoint x="340" y="125" as="targetPoint" />
            <Array as="points" />
          </mxGeometry>
        </mxCell>
        <mxCell id="jXeaGVmI7CSgdZlr9k7w-57" value="1" style="endArrow=open;html=1;endSize=12;startArrow=diamondThin;startSize=14;startFill=0;edgeStyle=orthogonalEdgeStyle;align=left;verticalAlign=bottom;rounded=0;" edge="1" parent="WIyWlLk6GJQsqaUBKTNV-1" source="_7U5zjCwsV4HifF4RqIY-6" target="1KCT2nZTQpKCan8YGp3O-62">
          <mxGeometry x="-1" y="3" relative="1" as="geometry">
            <mxPoint x="310" y="610" as="sourcePoint" />
            <mxPoint x="470" y="610" as="targetPoint" />
          </mxGeometry>
        </mxCell>
        <mxCell id="jXeaGVmI7CSgdZlr9k7w-59" value="1" style="endArrow=open;html=1;endSize=12;startArrow=diamondThin;startSize=14;startFill=1;edgeStyle=orthogonalEdgeStyle;align=left;verticalAlign=bottom;rounded=0;" edge="1" parent="WIyWlLk6GJQsqaUBKTNV-1" source="_7U5zjCwsV4HifF4RqIY-6" target="_7U5zjCwsV4HifF4RqIY-39">
          <mxGeometry x="-1" y="3" relative="1" as="geometry">
            <mxPoint x="310" y="610" as="sourcePoint" />
            <mxPoint x="470" y="610" as="targetPoint" />
          </mxGeometry>
        </mxCell>
      </root>
    </mxGraphModel>
  </diagram>
</mxfile>
